# xmcd
#
# Track frame offsets:
#        150
#        32251
#        43957
#        59247
#        79820
#        113497
#        125030
#        151612
#        191716
#        204547
#        224942
#        257736
#
# Disc length: 3572 seconds
#
# Revision: 0
# Processed by: cddbd v1.5.1PL0 Copyright (c) Steve Scherf et al.
# Submitted via: ExactAudioCopy v0.95a5
#
DISCID=b30df20c
DTITLE=As One - Out Of The Darkness
DYEAR=2004
DGENRE=Techno
TTITLE0=Hope Featuring Jinadu
TTITLE1=Out Of The Darkness
TTITLE2=It Ain't Nothin' Featuring Lacks
TTITLE3=Shed Dem Featuring Cathy B
TTITLE4=Leviathan
TTITLE5=What You Askin' For Featuring Lacks
TTITLE6=I Love You Featuring Paul Randolph
TTITLE7=Shapechange
TTITLE8=The Daisy Picker
TTITLE9=I'm Down Featuring Paul Randolph
TTITLE10=Sanctified
TTITLE11=Love Theme From The Spook Who Sat By The Door
EXTD=
EXTT0=
EXTT1=
EXTT2=
EXTT3=
EXTT4=
EXTT5=
EXTT6=
EXTT7=
EXTT8=
EXTT9=
EXTT10=
EXTT11=
PLAYORDER=
